<?xml version="1.0" encoding="utf-8"?>
<!-- Generator: Adobe Illustrator 23.0.1, SVG Export Plug-In . SVG Version: 6.00 Build 0)  -->
<svg version="1.1" id="Layer_1" xmlns="http://www.w3.org/2000/svg" xmlns:xlink="http://www.w3.org/1999/xlink" x="0px" y="0px"
	 viewBox="0 0 85 85" style="enable-background:new 0 0 85 85;" xml:space="preserve">
<style type="text/css">
	.st0{fill:#004A98;}
</style>
<g>
	<path class="st0" d="M42.5,52.3C42.5,52.3,42.5,52.3,42.5,52.3L42.5,52.3C42.5,52.3,42.5,52.3,42.5,52.3z M43.4,21.9
		c-1.6-1.6-4.2-1.6-5.9,0L16.7,42.7c-1.6,1.6-1.6,4.2,0,5.9l12.8,12.8c1.6,1.6,4.2,1.6,5.9,0v0v-1.5c0-0.2,0-0.4,0.1-0.6l-1.1,1.1
		c-0.5,0.5-1.2,0.8-1.9,0.8c-0.7,0-1.4-0.3-1.9-0.8l-7.3-7.3l24.7-24.7l3.5,3.5c0.7,0,1.5,0.1,2.2,0.2L43.4,21.9z M18.5,48.4
		l-0.8-0.8c-0.5-0.5-0.8-1.2-0.8-1.9c0-0.7,0.3-1.4,0.8-1.9l20.8-20.8c0.5-0.5,1.2-0.8,1.9-0.8c0.7,0,1.4,0.3,1.9,0.8l0.8,0.8
		L18.5,48.4z"/>
	<path class="st0" d="M61.3,55c0.8-0.2,1.7-0.6,2.4-1.3c0.8-0.8,1.4-1.8,1.6-2.9c0.2,0,0.4-0.1,0.5-0.3c0.2-0.2,0.4-0.5,0.5-0.8
		c0.1-0.3,0.2-0.6,0.2-0.9c0-0.5-0.3-1-0.8-1.2c0-0.1,0-0.3,0-0.4c0-2.8-2.3-5-5-5c-2.8,0-5,2.3-5,5c0,0.1,0,0.3,0,0.4
		c-0.4,0.2-0.8,0.6-0.8,1.2c0,0.3,0.1,0.8,0.3,1.2c0.1,0.2,0.2,0.4,0.4,0.5c0.1,0.1,0.3,0.3,0.5,0.3c0.2,1.2,0.8,2.2,1.6,2.9
		c0,0,0.1,0.1,0.1,0.1L57,54.8l0.1,0.1l-0.4,0.2c-0.9,0.3-1.7,0.5-2.4,0.8c-0.7,0.3-1.3,0.7-1.8,1.4c-0.3,0.3-0.4,0.8-0.5,1.2
		c-0.1,0.4-0.1,0.9-0.1,1.3c0,0.9,0.2,1.7,0.2,1.7l0,0.1l0.1,0.1c2.1,1.6,5.2,2.5,8.5,2.5c3.3,0,6.4-1,8.5-2.5l0.1-0.1l0-0.1
		c0,0,0.2-0.8,0.2-1.7c0-0.4,0-0.9-0.1-1.3c-0.1-0.4-0.2-0.8-0.5-1.2c-0.5-0.6-1.1-1.1-1.8-1.4c-0.6-0.3-1.3-0.5-2.2-0.8l-0.1-0.1
		c-0.4,0-0.8,0.2-1.1,0.3l0.8-0.7l-0.6-0.8c-0.1,0-0.2,0.1-0.3,0.1l0.5,0.7l-1.9,1.6"/>
	<path class="st0" d="M43.4,56.8c0.7-0.1,1.3-0.5,1.8-1c0.6-0.6,1.1-1.4,1.3-2.3c0.2,0,0.3-0.1,0.4-0.2c0.2-0.2,0.3-0.4,0.4-0.7
		c0.1-0.2,0.1-0.5,0.1-0.7c0-0.4-0.2-0.7-0.6-0.9c0-0.1,0-0.2,0-0.3c0-2.2-1.8-3.9-3.9-3.9c-2.2,0-3.9,1.8-3.9,3.9
		c0,0.1,0,0.2,0,0.3c-0.3,0.2-0.6,0.5-0.6,0.9c0,0.3,0.1,0.6,0.2,0.9c0.1,0.2,0.2,0.3,0.3,0.4c0.1,0.1,0.2,0.2,0.4,0.2
		c0.2,0.9,0.6,1.7,1.3,2.3c0,0,0,0,0.1,0.1L40,56.7l0.1,0.1l-0.3,0.2c-0.7,0.2-1.3,0.4-1.9,0.6c-0.5,0.2-1,0.6-1.4,1.1
		c-0.2,0.3-0.3,0.6-0.4,0.9c-0.1,0.3-0.1,0.7-0.1,1c0,0.7,0.1,1.3,0.1,1.4l0,0.1l0.1,0.1c1.7,1.2,4,2,6.6,2c2.6,0,5-0.7,6.6-2
		l0.1-0.1l0-0.1c0,0,0.1-0.6,0.1-1.4c0-0.3,0-0.7-0.1-1c-0.1-0.3-0.2-0.7-0.4-0.9c-0.4-0.5-0.9-0.8-1.4-1.1c-0.5-0.2-1-0.4-1.7-0.6
		l-0.1,0c-0.3,0-0.6,0.2-0.9,0.3l0.6-0.5L45.3,56c-0.1,0-0.2,0-0.3,0.1l0.4,0.5L44,57.9"/>
	<path class="st0" d="M54.7,47.1c0-2.7,1.8-4.9,4.2-5.7c0.1-0.3,0.2-0.6,0.2-0.9c0-0.6-0.4-1.2-0.9-1.4c0-0.2,0-0.4,0-0.5
		c0-3.4-2.8-6.2-6.2-6.2c-3.4,0-6.2,2.8-6.2,6.2c0,0.2,0,0.4,0,0.5c-0.5,0.2-0.9,0.8-0.9,1.4c0,0.4,0.1,0.9,0.4,1.4
		c0.1,0.2,0.3,0.5,0.4,0.7c0.2,0.2,0.4,0.3,0.6,0.3c0.2,1.4,1,2.7,2,3.6c0,0,0.1,0.1,0.1,0.1l-1,1.3l0.2,0.2l-0.4,0.2
		c0.4,0.7,0.6,1.4,0.6,2.2c0.4,0.4,0.6,0.9,0.6,1.4c0,0.3-0.1,0.7-0.2,1c-0.2,0.4-0.4,0.8-0.6,1c-0.1,0.1-0.2,0.2-0.3,0.2
		c-0.2,0.6-0.5,1.2-0.9,1.7l0.1,0.1c0.6,0.2,1.2,0.4,1.7,0.6C49,57,49.6,57.4,50,58c0.3,0.4,0.5,0.8,0.6,1.3l0,0c0,0.1,0,0.1,0,0.2
		c0.1,0,0.2,0,0.3,0c0-0.4,0.1-0.8,0.1-1.2c0.1-0.6,0.4-1.2,0.7-1.6c0.6-0.7,1.3-1.3,2.2-1.7c0.7-0.3,1.4-0.5,2.2-0.8l0.3-0.4
		c-0.6-0.7-1-1.5-1.3-2.4c-0.1-0.1-0.3-0.2-0.4-0.3c-0.2-0.2-0.4-0.5-0.5-0.8c-0.1-0.3-0.2-0.6-0.3-0.9l-0.4,0.4l-0.9-1.7
		c0.6-0.1,1.1-0.3,1.6-0.6C54.4,47.4,54.5,47.2,54.7,47.1z"/>
</g>
</svg>
