<?xml version="1.0" encoding="UTF-8" standalone="no"?>
<!-- Generator: Adobe Illustrator 22.0.1, SVG Export Plug-In . SVG Version: 6.00 Build 0)  -->

<svg
   xmlns:dc="http://purl.org/dc/elements/1.1/"
   xmlns:cc="http://creativecommons.org/ns#"
   xmlns:rdf="http://www.w3.org/1999/02/22-rdf-syntax-ns#"
   xmlns:svg="http://www.w3.org/2000/svg"
   xmlns="http://www.w3.org/2000/svg"
   xmlns:xlink="http://www.w3.org/1999/xlink"
   xmlns:sodipodi="http://sodipodi.sourceforge.net/DTD/sodipodi-0.dtd"
   xmlns:inkscape="http://www.inkscape.org/namespaces/inkscape"
   version="1.1"
   id="Layer_1"
   x="0px"
   y="0px"
   viewBox="0 0 85 85"
   style="enable-background:new 0 0 85 85;"
   xml:space="preserve"
   sodipodi:docname="fingerprint.svg"
   inkscape:version="0.92.4 (5da689c313, 2019-01-14)"><metadata
   id="metadata149"><rdf:RDF><cc:Work
       rdf:about=""><dc:format>image/svg+xml</dc:format><dc:type
         rdf:resource="http://purl.org/dc/dcmitype/StillImage" /></cc:Work></rdf:RDF></metadata><defs
   id="defs147" /><sodipodi:namedview
   pagecolor="#ffffff"
   bordercolor="#666666"
   borderopacity="1"
   objecttolerance="10"
   gridtolerance="10"
   guidetolerance="10"
   inkscape:pageopacity="0"
   inkscape:pageshadow="2"
   inkscape:window-width="640"
   inkscape:window-height="480"
   id="namedview145"
   showgrid="false"
   inkscape:zoom="2.7764706"
   inkscape:cx="42.5"
   inkscape:cy="42.5"
   inkscape:window-x="0"
   inkscape:window-y="0"
   inkscape:window-maximized="0"
   inkscape:current-layer="Layer_1" />
<style
   type="text/css"
   id="style2">
	.st0{fill:#00AE42;}
	.st1{clip-path:url(#SVGID_2_);fill:url(#SVGID_3_);}
	.st2{opacity:0.3;clip-path:url(#SVGID_2_);}
	.st3{opacity:0.3;}
	.st4{clip-path:url(#SVGID_5_);}
	.st5{fill:#16828D;}
	.st6{opacity:0.31;clip-path:url(#SVGID_2_);}
	.st7{opacity:0.31;}
	.st8{clip-path:url(#SVGID_7_);}
	.st9{fill:#939393;}
	.st10{fill:#8B8A8B;}
	.st11{fill:#7A7A7A;}
	.st12{fill:#B0B1B1;}
	.st13{fill:#A7A6A6;}
	.st14{fill:#A4A4A5;}
	.st15{fill:url(#SVGID_8_);}
	.st16{fill:#B5B5B5;}
	.st17{fill:#989898;}
	.st18{fill:url(#SVGID_9_);}
	.st19{fill:url(#SVGID_10_);}
	.st20{fill:url(#SVGID_11_);}
	.st21{fill:url(#SVGID_12_);}
	.st22{fill:url(#SVGID_13_);}
	.st23{fill:url(#SVGID_14_);}
	.st24{fill:url(#SVGID_15_);}
	.st25{fill:#9B9B9B;}
	.st26{fill:url(#SVGID_16_);}
	.st27{fill:url(#SVGID_17_);}
	.st28{fill:url(#SVGID_18_);}
	.st29{fill:url(#SVGID_19_);}
	.st30{fill:url(#SVGID_20_);}
	.st31{fill:url(#SVGID_21_);}
	.st32{fill:url(#SVGID_22_);}
	.st33{fill:url(#SVGID_23_);}
	.st34{fill:url(#SVGID_24_);}
	.st35{fill:url(#SVGID_25_);}
	.st36{fill:#FFFFFF;}
	.st37{fill:#929497;}
	.st38{fill:#BDBEC0;}
	.st39{fill:#818285;}
	.st40{fill:#004A98;}
	.st41{fill-rule:evenodd;clip-rule:evenodd;fill:#004A98;}
	.st42{fill:#00AE42;stroke:#004A98;stroke-width:0.25;stroke-miterlimit:10;}
</style>
<g
   id="g86">
	<defs
   id="defs5">
		<path
   id="SVGID_1_"
   d="M-71.6,85h-55.2c-7.9,0-14.4-6.4-14.4-14.4V14.4c0-7.9,6.4-14.4,14.4-14.4h55.2c7.9,0,14.4,6.4,14.4,14.4    v56.3C-57.2,78.6-63.7,85-71.6,85z" />
	</defs>
	<clipPath
   id="SVGID_2_">
		<use
   xlink:href="#SVGID_1_"
   style="overflow:visible;"
   id="use7" />
	</clipPath>
	<g
   class="st6"
   clip-path="url(#SVGID_2_)"
   id="g84">
		<defs
   id="defs11">
			<rect
   id="SVGID_6_"
   x="-154.2"
   y="-40.6"
   class="st7"
   width="109.6"
   height="241.1" />
		</defs>
		<use
   xlink:href="#SVGID_6_"
   style="overflow:visible;fill:#C13468;"
   id="use13" />
		<clipPath
   id="SVGID_3_">
			<use
   xlink:href="#SVGID_6_"
   style="overflow:visible;"
   id="use15" />
		</clipPath>
		<g
   style="clip-path:url(#SVGID_3_);"
   clip-path="url(#SVGID_3_)"
   id="g82">
			<g
   id="g48">
				<polygon
   class="st13"
   points="28.5,-0.1 23.3,-37.4 32.4,30.5     "
   id="polygon18" />
				<polygon
   class="st12"
   points="0.6,-0.5 -33.9,-7.4 -19.6,51.4     "
   id="polygon20" />
				<polygon
   class="st13"
   points="32.4,30.5 23.3,-37.4 0.6,-0.5     "
   id="polygon22" />
				<polygon
   class="st14"
   points="-4.6,50.1 32.4,30.5 0.6,-0.5 -24.1,60.9     "
   id="polygon24" />
				<polygon
   class="st14"
   points="52.2,21.8 28.5,-0.1 32.4,30.5 52.2,35.4     "
   id="polygon26" />
				<polygon
   class="st12"
   points="52.2,21.8 52.2,-10.6 45.4,-28.1 28.5,-0.1     "
   id="polygon28" />
				
					<linearGradient
   id="SVGID_5_"
   gradientUnits="userSpaceOnUse"
   x1="627.0635"
   y1="-356.0142"
   x2="609.0238"
   y2="-299.5567"
   gradientTransform="matrix(-1 0 0 -1 626.9841 -280.5037)">
					<stop
   offset="4.242420e-02"
   style="stop-color:#FFFFFF"
   id="stop30" />
					<stop
   offset="1"
   style="stop-color:#8B8A8B"
   id="stop32" />
				</linearGradient>
				<path
   style="fill:url(#SVGID_5_);"
   d="M14.9,69.5l11.9,11.9c-0.2-0.7,5.6-50.9,5.6-50.9l-37,19.6l-19.5,10.8L14.9,69.5z"
   id="path35" />
				<polygon
   class="st25"
   points="52.2,47.8 52.2,35.4 32.4,30.5     "
   id="polygon37" />
				<path
   class="st12"
   d="M26.8,81.3l25.5,0.4V47.8L32.4,30.5C32.4,30.5,26.5,80.6,26.8,81.3z"
   id="path39" />
				
					<linearGradient
   id="SVGID_7_"
   gradientUnits="userSpaceOnUse"
   x1="584.4838"
   y1="-368.1174"
   x2="551.1378"
   y2="-325.7015"
   gradientTransform="matrix(-1 0 0 -1 626.9841 -280.5037)">
					<stop
   offset="4.242420e-02"
   style="stop-color:#FFFFFF"
   id="stop41" />
					<stop
   offset="1"
   style="stop-color:#8B8A8B"
   id="stop43" />
				</linearGradient>
				<polygon
   style="fill:url(#SVGID_7_);"
   points="52.2,81.8 26.8,81.3 50.6,100.1 52.2,101.5     "
   id="polygon46" />
			</g>
			<g
   id="g80">
				<path
   class="st9"
   d="M36.7-6.3L16.3,17.5c0,0,10-11.4,20.4-23.5V-6.3z"
   id="path50" />
				<polygon
   class="st13"
   points="36.7,81.6 16.3,64.3 16.3,91 36.7,91.5     "
   id="polygon52" />
				<polygon
   class="st12"
   points="36.7,61.6 16.3,64.3 36.7,81.6     "
   id="polygon54" />
				<polygon
   class="st14"
   points="36.7,35.4 16.3,17.5 16.3,64.3 36.7,61.6     "
   id="polygon56" />
				
					<linearGradient
   id="SVGID_8_"
   gradientUnits="userSpaceOnUse"
   x1="17.2989"
   y1="-3.0103"
   x2="46.7678"
   y2="38.2465"
   gradientTransform="matrix(1 0 0 1 6.4399 4.8996)">
					<stop
   offset="4.242420e-02"
   style="stop-color:#FFFFFF"
   id="stop58" />
					<stop
   offset="1"
   style="stop-color:#8B8A8B"
   id="stop60" />
				</linearGradient>
				<path
   class="st15"
   d="M36.7-6C26.3,6.1,16.3,17.5,16.3,17.5l20.4,17.9V-6z"
   id="path63" />
				<path
   class="st16"
   d="M-10.1,71c0,0.3-13.7,45.5-13.7,45.5l24.2-15.2L-10.1,71z"
   id="path65" />
				<polygon
   class="st11"
   points="16.3,91.4 -10.1,71 0.4,101.3     "
   id="polygon67" />
				<polygon
   class="st12"
   points="16.3,91.4 16.3,91 16.3,64.4 -10.1,71 16.3,91.4     "
   id="polygon69" />
				
					<linearGradient
   id="SVGID_9_"
   gradientUnits="userSpaceOnUse"
   x1="-0.8317"
   y1="-0.1923"
   x2="-11.916"
   y2="52.2944"
   gradientTransform="matrix(1 0 0 1 6.4399 4.8996)">
					<stop
   offset="4.242420e-02"
   style="stop-color:#FFFFFF"
   id="stop71" />
					<stop
   offset="1"
   style="stop-color:#8B8A8B"
   id="stop73" />
				</linearGradient>
				<path
   class="st18"
   d="M-10.1,71l26.5-53.8L-6.8,0.4C-6.8,1.5-10.1,71-10.1,71z"
   id="path76" />
				<polygon
   class="st16"
   points="16.3,64.4 16.3,64.3 16.3,17.5 16.3,17.2 -10.1,71     "
   id="polygon78" />
			</g>
		</g>
	</g>
</g>

<g
   id="g142">
	<path
   class="st37"
   d="M33.2,64.6c-0.3,0-0.6-0.1-0.8-0.4c-0.4-0.4-0.3-1.1,0.1-1.4c4.9-4.1,7.9-9.7,8.1-15.3   c0.1-2.1-0.4-3.8-0.8-4.6c-0.2,0.7-0.4,2-0.3,4.7c0.2,4.5-2.7,9.4-8.7,14.9c-0.4,0.4-1.1,0.4-1.5-0.1C29,62,29,61.3,29.4,61   c5.6-5.1,8.2-9.4,8.1-13.3c-0.2-5.4,0.7-6.6,1.4-7.1c0.5-0.3,1.1-0.3,1.6,0c1.5,0.9,2.3,4.3,2.2,7c-0.2,6.2-3.5,12.3-8.8,16.8   C33.7,64.5,33.4,64.6,33.2,64.6z"
   id="path108" />
	<path
   class="st37"
   d="M27.5,60c-0.2,0-0.5-0.1-0.7-0.3c-0.4-0.4-0.4-1-0.1-1.5l0.8-0.9c3.9-4.2,5.8-6.3,6.3-10.4   c0.1-0.6,0.6-1,1.1-0.9c0.6,0.1,1,0.6,0.9,1.1c-0.6,4.7-2.9,7.3-6.8,11.5l-0.8,0.9C28.1,59.9,27.8,60,27.5,60z"
   id="path110" />
	<path
   class="st37"
   d="M44.8,49.4C44.8,49.4,44.8,49.4,44.8,49.4c-0.6,0-1.1-0.5-1-1.1c0-0.3,0-0.7,0-1c0-4.2-1.1-6-2-7.4   c-0.9-1.4-2-2.2-3-1.9c-1.1,0.3-2.4,1.9-2.5,5.7c0,0.6-0.5,1-1.1,1c-0.6,0-1-0.5-1-1.1c0.2-4.1,1.7-7,4.1-7.6   c1.9-0.5,3.9,0.6,5.2,2.8c1,1.6,2.2,3.7,2.3,8.5c0,0.4,0,0.8,0,1.2C45.8,49,45.4,49.4,44.8,49.4z"
   id="path112" />
	<path
   class="st37"
   d="M37.3,65.3c-0.3,0-0.5-0.1-0.7-0.3c-0.4-0.4-0.4-1.1,0-1.5c3.1-3,5.6-7.3,6.7-11.8c0.1-0.6,0.7-0.9,1.2-0.8   c0.6,0.1,0.9,0.7,0.8,1.2c-1.2,4.9-3.8,9.5-7.3,12.8C37.8,65.2,37.5,65.3,37.3,65.3z"
   id="path114" />
	<path
   class="st37"
   d="M25.2,56.3c-0.3,0-0.6-0.1-0.8-0.3c-0.4-0.4-0.4-1.1,0.1-1.5c5.5-5.1,6-9,6.7-13.6c0.2-1.1,0.3-2.3,0.6-3.5   c0.5-2.4,1.8-4.2,3.6-5.2c1.8-0.9,3.9-1,5.9-0.2c0.5,0.2,0.8,0.8,0.6,1.3c-0.2,0.5-0.8,0.8-1.3,0.6c-1.5-0.6-2.9-0.6-4.2,0.1   c-1.3,0.7-2.2,2-2.6,3.8c-0.2,1.2-0.4,2.3-0.6,3.4c-0.7,4.8-1.4,9.3-7.3,14.8C25.7,56.3,25.5,56.3,25.2,56.3z"
   id="path116" />
	<path
   class="st37"
   d="M41.9,64.4c-0.3,0-0.5-0.1-0.7-0.3c-0.4-0.4-0.4-1.1,0-1.5c3.6-3.5,5.6-8.2,5.9-14.1   c0.3-5.6-1.1-8.4-2.9-11.2c-0.5-0.8-0.6-1-1.2-1.5c-0.4-0.4-0.4-1,0-1.5c0.4-0.4,1-0.4,1.5,0c0.7,0.7,1,1,1.5,1.9   c1.8,3,3.5,6.2,3.2,12.4c-0.3,6.4-2.5,11.6-6.5,15.5C42.4,64.3,42.2,64.4,41.9,64.4z"
   id="path118" />
	<path
   class="st37"
   d="M23.1,51.3c-0.3,0-0.7-0.2-0.9-0.5c-0.3-0.5-0.2-1.1,0.3-1.4c3.3-2.2,4.3-5.7,5.2-9.8   c0.1-0.6,0.7-0.9,1.2-0.8c0.6,0.1,0.9,0.7,0.8,1.2c-1,4.3-2.2,8.4-6.1,11C23.5,51.3,23.3,51.3,23.1,51.3z"
   id="path120" />
	<path
   class="st37"
   d="M50.5,41c-0.5,0-0.9-0.3-1-0.8c-0.7-3-1.7-5-3.6-7.1c-2.6-2.9-6.1-4.4-9.2-3.9c-2.3,0.4-4,1.7-4.9,3.8   c-0.4,0.9-0.8,2-1.1,3.4c-0.1,0.5-0.7,0.9-1.3,0.7c-0.5-0.1-0.9-0.7-0.7-1.3c0.4-1.5,0.8-2.6,1.2-3.7c1.2-2.7,3.6-4.6,6.5-5.1   c3.9-0.6,8,1.1,11.1,4.6c2.1,2.3,3.2,4.6,4,7.9c0.1,0.6-0.2,1.1-0.8,1.2C50.6,41,50.5,41,50.5,41z"
   id="path122" />
	<path
   class="st37"
   d="M49.7,58.7c-0.1,0-0.2,0-0.4-0.1c-0.5-0.2-0.8-0.8-0.6-1.3c2.1-5.4,2.2-8.2,1.6-12.3   c-0.1-0.5-0.1-0.9-0.2-1.3c-0.1-0.6,0.3-1.1,0.9-1.2c0.6-0.1,1.1,0.3,1.2,0.9c0.1,0.4,0.1,0.9,0.2,1.3c0.6,4.4,0.5,7.5-1.7,13.3   C50.5,58.4,50.1,58.7,49.7,58.7z"
   id="path124" />
	<path
   class="st37"
   d="M22.6,44.9c-0.3,0-0.5-0.1-0.7-0.3c-0.4-0.4-0.4-1,0-1.5c1.8-1.9,2.1-3.8,2.5-6.3c0.3-1.9,0.7-4,1.7-6.5   c1.2-2.8,3.4-5.1,6.3-6.3c0.5-0.2,1.1,0,1.3,0.5c0.2,0.5,0,1.1-0.5,1.3c-2.4,1-4.3,2.9-5.2,5.2c-0.9,2.3-1.3,4.3-1.6,6   c-0.4,2.6-0.8,5-3,7.4C23.2,44.8,22.9,44.9,22.6,44.9z"
   id="path126" />
	<path
   class="st37"
   d="M50.9,31.9c-0.3,0-0.6-0.2-0.8-0.4c-1.7-2.4-3.9-4.1-6.9-5.3c-2.8-1.1-5-1.5-7.1-1.1   c-0.6,0.1-1.1-0.3-1.2-0.8c-0.1-0.6,0.3-1.1,0.8-1.2c2.5-0.4,5.1-0.1,8.2,1.2c3.3,1.3,5.9,3.3,7.8,6c0.3,0.5,0.2,1.1-0.3,1.4   C51.3,31.8,51.1,31.9,50.9,31.9z"
   id="path128" />
	<path
   class="st37"
   d="M54.8,52.8c0,0-0.1,0-0.2,0c-0.6-0.1-1-0.6-0.9-1.2c1.1-7.3,0.2-10.1-1-14.3l-0.2-0.5   c-0.3-0.9-0.6-1.7-0.9-2.5c-0.2-0.5,0-1.1,0.5-1.4c0.5-0.2,1.1,0,1.4,0.5c0.4,0.9,0.7,1.8,1,2.8l0.2,0.5c1.3,4.3,2.2,7.4,1.1,15.2   C55.7,52.4,55.3,52.8,54.8,52.8z"
   id="path130" />
	<path
   class="st37"
   d="M20.8,39.3c-0.1,0-0.2,0-0.3,0c-0.5-0.2-0.9-0.7-0.7-1.3c0.2-0.6,0.4-1.4,0.5-2.3c0.7-3.2,1.6-7.6,4.4-10.5   c0.4-0.4,1-0.4,1.5,0c0.4,0.4,0.4,1,0,1.5c-2.4,2.5-3.2,6.3-3.9,9.5c-0.2,0.9-0.4,1.7-0.6,2.4C21.6,39,21.2,39.3,20.8,39.3z"
   id="path132" />
	<path
   class="st37"
   d="M28,24.5c-0.3,0-0.6-0.1-0.8-0.4c-0.4-0.4-0.3-1.1,0.1-1.4c3.3-2.8,7.8-4.3,11.9-4c2.4,0.2,5.1,0.9,7.5,2   c0.5,0.2,0.7,0.9,0.5,1.4c-0.2,0.5-0.9,0.7-1.4,0.5c-2.2-1-4.6-1.7-6.7-1.8c-3.6-0.2-7.5,1.1-10.4,3.6C28.4,24.4,28.2,24.5,28,24.5   z"
   id="path134" />
	<path
   class="st37"
   d="M57.2,36.6c-0.5,0-0.9-0.3-1-0.8c-1.3-5.4-3.7-9.2-7.6-11.7c-0.5-0.3-0.6-0.9-0.3-1.4   c0.3-0.5,0.9-0.6,1.4-0.3c4.4,2.8,7.1,7,8.5,12.9c0.1,0.6-0.2,1.1-0.8,1.2C57.4,36.6,57.3,36.6,57.2,36.6z"
   id="path136" />
	<path
   class="st37"
   d="M26.8,20.6c-0.3,0-0.6-0.1-0.8-0.4c-0.3-0.5-0.2-1.1,0.2-1.4c3.5-2.6,7.6-4.1,11.7-4.1c0.6,0,1,0.4,1,1   c0,0.6-0.4,1-1,1c-3.6,0.1-7.3,1.4-10.5,3.7C27.2,20.5,27,20.6,26.8,20.6z"
   id="path138" />
	<path
   class="st37"
   d="M53.5,22.7c-0.3,0-0.5-0.1-0.7-0.3c-2.9-3.1-7.4-5.3-11.8-5.7c-0.6-0.1-1-0.6-0.9-1.1c0.1-0.6,0.6-1,1.1-0.9   c5,0.5,9.9,2.9,13.1,6.4c0.4,0.4,0.4,1.1,0,1.5C54,22.6,53.8,22.7,53.5,22.7z"
   id="path140" />
</g>
</svg>