<?xml version="1.0" encoding="utf-8"?>
<!-- Generator: Adobe Illustrator 22.0.1, SVG Export Plug-In . SVG Version: 6.00 Build 0)  -->
<svg version="1.1" id="Layer_1" xmlns="http://www.w3.org/2000/svg" xmlns:xlink="http://www.w3.org/1999/xlink" x="0px" y="0px"
	 viewBox="0 0 85 85" style="enable-background:new 0 0 85 85;" xml:space="preserve">
<style type="text/css">
	.st0{fill:#00AE42;}
	.st1{clip-path:url(#SVGID_2_);fill:url(#SVGID_3_);}
	.st2{opacity:0.3;clip-path:url(#SVGID_2_);}
	.st3{opacity:0.3;}
	.st4{clip-path:url(#SVGID_5_);}
	.st5{fill:#16828D;}
	.st6{opacity:0.31;clip-path:url(#SVGID_2_);}
	.st7{opacity:0.31;}
	.st8{clip-path:url(#SVGID_7_);}
	.st9{fill:#939393;}
	.st10{fill:#8B8A8B;}
	.st11{fill:#7A7A7A;}
	.st12{fill:#B0B1B1;}
	.st13{fill:#A7A6A6;}
	.st14{fill:#A4A4A5;}
	.st15{fill:url(#SVGID_8_);}
	.st16{fill:#B5B5B5;}
	.st17{fill:#989898;}
	.st18{fill:url(#SVGID_9_);}
	.st19{fill:url(#SVGID_10_);}
	.st20{fill:url(#SVGID_11_);}
	.st21{fill:url(#SVGID_12_);}
	.st22{fill:url(#SVGID_13_);}
	.st23{fill:url(#SVGID_14_);}
	.st24{fill:url(#SVGID_15_);}
	.st25{fill:#9B9B9B;}
	.st26{fill:url(#SVGID_16_);}
	.st27{fill:url(#SVGID_17_);}
	.st28{fill:url(#SVGID_18_);}
	.st29{fill:url(#SVGID_19_);}
	.st30{fill:url(#SVGID_20_);}
	.st31{fill:url(#SVGID_21_);}
	.st32{fill:url(#SVGID_22_);}
	.st33{fill:url(#SVGID_23_);}
	.st34{fill:url(#SVGID_24_);}
	.st35{fill:url(#SVGID_25_);}
	.st36{fill:#FFFFFF;}
	.st37{fill:#929497;}
	.st38{fill:#BDBEC0;}
	.st39{fill:#818285;}
	.st40{fill:#004A98;}
	.st41{fill-rule:evenodd;clip-rule:evenodd;fill:#004A98;}
	.st42{fill:#00AE42;stroke:#004A98;stroke-width:0.25;stroke-miterlimit:10;}
</style>
<g>
	<path class="st41" d="M27.2,46.2h6.9v15.6h-6.9V46.2L27.2,46.2z M36.7,46.2h6.9v15.6h-6.9V46.2L36.7,46.2z M46.2,46.2h6.9v15.6
		h-6.9V46.2L46.2,46.2z M55.8,46.2h6.9v15.6h-6.9V46.2L55.8,46.2z M24.3,42.9l20.7-13.1l20.7,13.1V38L44.9,24.9L24.3,38V42.9
		L24.3,42.9z M27.2,43.2l17.8-11.3l17.8,11.3v1H27.2V43.2L27.2,43.2z M25.4,63.5h39.1v2.8H25.4V63.5L25.4,63.5z"/>
	<path class="st41" d="M67,49.2c2.4-6.2,2.6-10.7-1-15.8L62.5,35l3.3-11.1l10.7,4.6L73,30.1C75.7,36.3,74.2,43.2,67,49.2L67,49.2z"
		/>
	<path class="st41" d="M22,29.2c-4.3,7.8-5.3,13.8-1.5,21.3l4.9-1.6L19,63.2l-13.4-8l4.9-1.6C8.1,44.7,11.3,35.8,22,29.2L22,29.2z"
		/>
</g>
</svg>
