<?xml version="1.0" encoding="utf-8"?>
<!-- Generator: Adobe Illustrator 22.0.1, SVG Export Plug-In . SVG Version: 6.00 Build 0)  -->
<svg version="1.1" id="Layer_1" xmlns="http://www.w3.org/2000/svg" xmlns:xlink="http://www.w3.org/1999/xlink" x="0px" y="0px"
	 viewBox="0 0 85 85" style="enable-background:new 0 0 85 85;" xml:space="preserve">
<style type="text/css">
	.st0{fill:#00AE42;}
	.st1{clip-path:url(#SVGID_2_);fill:url(#SVGID_3_);}
	.st2{opacity:0.3;clip-path:url(#SVGID_2_);}
	.st3{opacity:0.3;}
	.st4{clip-path:url(#SVGID_5_);}
	.st5{fill:#16828D;}
	.st6{opacity:0.31;clip-path:url(#SVGID_2_);}
	.st7{opacity:0.31;}
	.st8{clip-path:url(#SVGID_7_);}
	.st9{fill:#939393;}
	.st10{fill:#8B8A8B;}
	.st11{fill:#7A7A7A;}
	.st12{fill:#B0B1B1;}
	.st13{fill:#A7A6A6;}
	.st14{fill:#A4A4A5;}
	.st15{fill:url(#SVGID_8_);}
	.st16{fill:#B5B5B5;}
	.st17{fill:#989898;}
	.st18{fill:url(#SVGID_9_);}
	.st19{fill:url(#SVGID_10_);}
	.st20{fill:url(#SVGID_11_);}
	.st21{fill:url(#SVGID_12_);}
	.st22{fill:url(#SVGID_13_);}
	.st23{fill:url(#SVGID_14_);}
	.st24{fill:url(#SVGID_15_);}
	.st25{fill:#9B9B9B;}
	.st26{fill:url(#SVGID_16_);}
	.st27{fill:url(#SVGID_17_);}
	.st28{fill:url(#SVGID_18_);}
	.st29{fill:url(#SVGID_19_);}
	.st30{fill:url(#SVGID_20_);}
	.st31{fill:url(#SVGID_21_);}
	.st32{fill:url(#SVGID_22_);}
	.st33{fill:url(#SVGID_23_);}
	.st34{fill:url(#SVGID_24_);}
	.st35{fill:url(#SVGID_25_);}
	.st36{fill:#FFFFFF;}
	.st37{fill:#929497;}
	.st38{fill:#BDBEC0;}
	.st39{fill:#818285;}
	.st40{fill:#004A98;}
	.st41{fill-rule:evenodd;clip-rule:evenodd;fill:#004A98;}
	.st42{fill:#00AE42;stroke:#004A98;stroke-width:0.25;stroke-miterlimit:10;}
</style>
<g>
	<g>
		<g>
			<rect x="31.5" y="28.5" class="st40" width="19.2" height="1.3"/>
		</g>
		<g>
			<rect x="31.5" y="34.3" class="st40" width="19.2" height="1.3"/>
		</g>
		<g>
			<rect x="31.5" y="40" class="st40" width="19.2" height="1.3"/>
		</g>
		<g>
			<rect x="31.5" y="45.8" class="st40" width="19.2" height="1.3"/>
		</g>
	</g>
	<path class="st40" d="M45.2,60.5H29.4c-1.2,0-2.2-1-2.2-2.2V26c0-1.2,1-2.2,2.2-2.2h23.4c1.2,0,2.2,1,2.2,2.2v21.8
		c0.9,0.2,1.7,0.6,2.5,1.1V26c0-2.6-2.1-4.7-4.7-4.7H29.4c-2.6,0-4.7,2.1-4.7,4.7v32.3c0,2.6,2.1,4.7,4.7,4.7h18
		C46.5,62.3,45.8,61.5,45.2,60.5z"/>
	<path class="st40" d="M52.8,48.7c-4.2,0-7.5,3.4-7.5,7.5c0,4.2,3.4,7.5,7.5,7.5c4.2,0,7.5-3.4,7.5-7.5C60.4,52.1,57,48.7,52.8,48.7
		z M50,61.6l-3.5-4.5l1.6-1.7l1.5,3.5c0,0,2.7-5.3,8.3-6.8C57.9,52.1,50.6,56.6,50,61.6z"/>
</g>
</svg>
