<?xml version="1.0" encoding="UTF-8" standalone="no"?>
<!-- Generator: Adobe Illustrator 22.0.1, SVG Export Plug-In . SVG Version: 6.00 Build 0)  -->

<svg
   xmlns:dc="http://purl.org/dc/elements/1.1/"
   xmlns:cc="http://creativecommons.org/ns#"
   xmlns:rdf="http://www.w3.org/1999/02/22-rdf-syntax-ns#"
   xmlns:svg="http://www.w3.org/2000/svg"
   xmlns="http://www.w3.org/2000/svg"
   xmlns:sodipodi="http://sodipodi.sourceforge.net/DTD/sodipodi-0.dtd"
   xmlns:inkscape="http://www.inkscape.org/namespaces/inkscape"
   version="1.1"
   id="Layer_1"
   x="0px"
   y="0px"
   viewBox="0 0 85 85"
   style="enable-background:new 0 0 85 85;"
   xml:space="preserve"
   sodipodi:docname="Iconos Prodem Móvil_15-16.svg"
   inkscape:version="0.92.4 (5da689c313, 2019-01-14)"><metadata
   id="metadata25"><rdf:RDF><cc:Work
       rdf:about=""><dc:format>image/svg+xml</dc:format><dc:type
         rdf:resource="http://purl.org/dc/dcmitype/StillImage" /></cc:Work></rdf:RDF></metadata><defs
   id="defs23" /><sodipodi:namedview
   pagecolor="#ffffff"
   bordercolor="#666666"
   borderopacity="1"
   objecttolerance="10"
   gridtolerance="10"
   guidetolerance="10"
   inkscape:pageopacity="0"
   inkscape:pageshadow="2"
   inkscape:window-width="2560"
   inkscape:window-height="1017"
   id="namedview21"
   showgrid="false"
   inkscape:zoom="2.7764706"
   inkscape:cx="42.5"
   inkscape:cy="42.5"
   inkscape:window-x="-8"
   inkscape:window-y="-8"
   inkscape:window-maximized="1"
   inkscape:current-layer="Layer_1" />
<style
   type="text/css"
   id="style2">
	.st0{fill:#00AE42;}
	.st1{clip-path:url(#SVGID_2_);fill:url(#SVGID_3_);}
	.st2{opacity:0.3;clip-path:url(#SVGID_2_);}
	.st3{opacity:0.3;}
	.st4{clip-path:url(#SVGID_5_);}
	.st5{fill:#16828D;}
	.st6{opacity:0.31;clip-path:url(#SVGID_2_);}
	.st7{opacity:0.31;}
	.st8{clip-path:url(#SVGID_7_);}
	.st9{fill:#939393;}
	.st10{fill:#8B8A8B;}
	.st11{fill:#7A7A7A;}
	.st12{fill:#B0B1B1;}
	.st13{fill:#A7A6A6;}
	.st14{fill:#A4A4A5;}
	.st15{fill:url(#SVGID_8_);}
	.st16{fill:#B5B5B5;}
	.st17{fill:#989898;}
	.st18{fill:url(#SVGID_9_);}
	.st19{fill:url(#SVGID_10_);}
	.st20{fill:url(#SVGID_11_);}
	.st21{fill:url(#SVGID_12_);}
	.st22{fill:url(#SVGID_13_);}
	.st23{fill:url(#SVGID_14_);}
	.st24{fill:url(#SVGID_15_);}
	.st25{fill:#9B9B9B;}
	.st26{fill:url(#SVGID_16_);}
	.st27{fill:url(#SVGID_17_);}
	.st28{fill:url(#SVGID_18_);}
	.st29{fill:url(#SVGID_19_);}
	.st30{fill:url(#SVGID_20_);}
	.st31{fill:url(#SVGID_21_);}
	.st32{fill:url(#SVGID_22_);}
	.st33{fill:url(#SVGID_23_);}
	.st34{fill:url(#SVGID_24_);}
	.st35{fill:url(#SVGID_25_);}
	.st36{fill:#FFFFFF;}
	.st37{fill:#929497;}
	.st38{fill:#BDBEC0;}
	.st39{fill:#818285;}
	.st40{fill:#004A98;}
	.st41{fill-rule:evenodd;clip-rule:evenodd;fill:#004A98;}
	.st42{fill:#00AE42;stroke:#004A98;stroke-width:0.25;stroke-miterlimit:10;}
</style>
<rect
   x="0"
   y="0"
   class="st0"
   width="85"
   height="85"
   id="rect4"
   style="fill:none" />
<g
   id="g18"
   style="fill:#000000">
	<path
   class="st36"
   d="M23.7,50.9c1.1,0.9,2.8,0.8,3.8-0.3l2.1-2.5c0.9-1.1,0.8-2.8-0.3-3.8l0,0c-1.1-0.9-2.8-0.8-3.8,0.3l-2.1,2.5   C22.4,48.2,22.6,49.9,23.7,50.9z"
   id="path6"
   style="fill:#000000" />
	<path
   class="st36"
   d="M39.5,59.9l0.6,0.5c0.4,0.3,1,0.3,1.3-0.1l2.8-3.5c0.3-0.4,0.3-1-0.1-1.3L43.5,55c-0.4-0.3-1-0.3-1.3,0.1   l-2.8,3.5C39,59,39.1,59.6,39.5,59.9z"
   id="path8"
   style="fill:#000000" />
	<path
   class="st36"
   d="M44.9,53.2l0.6,0.5c0.4,0.3,1,0.3,1.3-0.1l2.8-3.5c0.3-0.4,0.3-1-0.1-1.3l-0.6-0.5c-0.4-0.3-1-0.3-1.3,0.1   l-2.8,3.5C44.5,52.3,44.6,52.8,44.9,53.2z"
   id="path10"
   style="fill:#000000" />
	<path
   class="st36"
   d="M50.5,46.4l0.6,0.5c0.4,0.3,1,0.3,1.3-0.1l2.8-3.5c0.3-0.4,0.3-1-0.1-1.3l-0.6-0.5c-0.4-0.3-1-0.3-1.3,0.1   l-2.8,3.5C50,45.5,50.1,46.1,50.5,46.4z"
   id="path12"
   style="fill:#000000" />
	<path
   class="st36"
   d="M56,39.6l0.6,0.5c0.4,0.3,1,0.3,1.3-0.1l2.8-3.5c0.3-0.4,0.3-1-0.1-1.3L60,34.7c-0.4-0.3-1-0.3-1.3,0.1   l-2.8,3.5C55.5,38.7,55.6,39.3,56,39.6z"
   id="path14"
   style="fill:#000000" />
	<path
   class="st36"
   d="M46.3,16.7c0.5,0,1.3,0.1,2,0.7l16.8,13.9c0.6,0.5,1.1,1.3,1.1,2.1c0.1,0.8-0.2,1.7-0.7,2.3L41.2,65.4   c-0.6,0.7-1.5,1.1-2.4,1.1c-0.5,0-1.3-0.1-2-0.7L19.9,51.9c-1.3-1.1-1.5-3.1-0.4-4.4l24.4-29.6C44.5,17.1,45.4,16.7,46.3,16.7    M46.3,13.5c-1.8,0-3.6,0.8-4.9,2.3L17,45.5c-2.2,2.7-1.8,6.7,0.9,8.9l16.8,13.9c1.2,1,2.6,1.4,4,1.4c1.8,0,3.6-0.8,4.9-2.3   L68,37.8c2.2-2.7,1.8-6.7-0.9-8.9L50.3,15C49.2,14,47.7,13.5,46.3,13.5L46.3,13.5z"
   id="path16"
   style="fill:#000000" />
</g>
</svg>