<?xml version="1.0" encoding="utf-8"?>
<!-- Generator: Adobe Illustrator 23.0.1, SVG Export Plug-In . SVG Version: 6.00 Build 0)  -->
<svg version="1.1" id="Layer_1" xmlns="http://www.w3.org/2000/svg" xmlns:xlink="http://www.w3.org/1999/xlink" x="0px" y="0px"
	 viewBox="0 0 85 85" style="enable-background:new 0 0 85 85;" xml:space="preserve">
<style type="text/css">
	.st0{fill:#004A98;}
	.st1{fill-rule:evenodd;clip-rule:evenodd;fill:#004A98;}
</style>
<g>
	<path class="st0" d="M58.5,36.1v-5.9c0-0.3-0.2-0.5-0.5-0.5h-2.5c-0.3,0-0.5,0.2-0.5,0.5v5.9c0,0.3-0.2,0.5-0.5,0.5h-1.2
		c-0.3,0-0.3,0.1-0.1,0.3l3.2,3.2c0.2,0.2,0.5,0.2,0.6,0l3.2-3.2c0.2-0.2,0.1-0.3-0.1-0.3H59C58.7,36.5,58.5,36.3,58.5,36.1z"/>
	<g>
		<path class="st0" d="M49.7,46.5c-0.1-0.1-0.1-0.1,0-0.2c0,0,0,0,0-0.1c-0.1,0-0.1-0.1-0.1-0.2c0-0.1,0-0.1,0-0.1
			c-0.1,0-0.2-0.1-0.1-0.2c0-0.1,0-0.1-0.1-0.1c-0.1,0-0.2-0.1-0.2-0.1c0,0,0,0-0.1,0c-0.1,0-0.2,0-0.2-0.1c0,0,0,0-0.1,0
			c-0.1,0-0.2,0-0.3,0c0,0,0,0-0.1,0c-0.1,0-0.2,0.1-0.3,0c-0.1,0-0.1,0-0.1,0c-0.1,0.1-0.2,0.1-0.3,0.1c-0.1,0-0.1,0-0.1,0
			c-0.1,0.1-0.2,0.1-0.3,0.1c-0.1,0-0.1,0-0.1,0.1c0,0.1-0.2,0.1-0.3,0.2c-0.1,0-0.1,0-0.1,0.1c0,0.1-0.1,0.2-0.2,0.2
			c-0.1,0-0.1,0-0.1,0.1c0,0.1-0.1,0.2-0.1,0.2c-0.1,0-0.1,0,0,0.1c0,0.1,0,0.2-0.1,0.2c-0.1,0-0.1,0,0,0.1c0.1,0,0.1,0.1,0,0.2
			c0,0.1,0,0.1,0,0.1c0.1,0,0.1,0.1,0.1,0.2c0,0.1,0,0.1,0,0.1c0.1,0,0.2,0.1,0.2,0.2c0,0.1,0,0.1,0.1,0.1c0.1,0,0.2,0,0.2,0.1
			c0,0.1,0,0.1,0.1,0c0.1,0,0.2,0,0.3,0.1c0,0,0,0,0.1,0c0.1,0,0.3,0,0.3,0c0.1,0,0.1,0,0.1,0c0.1-0.1,0.2-0.1,0.3-0.1
			c0.1,0,0.1,0,0.1,0c0.1-0.1,0.2-0.1,0.3-0.1c0.1,0,0.1,0,0.1-0.1c0-0.1,0.2-0.2,0.3-0.2c0.1,0,0.1,0,0.1-0.1
			c0-0.1,0.1-0.2,0.2-0.2c0.1,0,0.1,0,0.1-0.1c0-0.1,0.1-0.2,0.2-0.2c0.1,0,0.1,0,0-0.1C49.5,46.8,49.6,46.7,49.7,46.5
			C49.7,46.6,49.7,46.6,49.7,46.5z M65.7,41.9H46.5c-0.5,0-1.1,0.3-1.3,0.6l-5.1,8.8c-0.4,0.7-0.1,1.3,0.8,1.3h30.4
			c0.8,0,1.2-0.6,0.8-1.3L67,42.5C66.8,42.2,66.2,41.9,65.7,41.9z M65,43.3c-0.3-0.1-0.5-0.2-0.6-0.4c-0.1-0.2,0.1-0.3,0.3-0.3
			l-0.1-0.2H65l0.1,0.2c0.2,0,0.4,0.1,0.5,0.1l-0.1,0.2c-0.1,0-0.3-0.1-0.4-0.1c-0.2,0-0.3,0-0.2,0.1c0,0.1,0.2,0.1,0.5,0.2
			c0.3,0.1,0.6,0.2,0.7,0.4c0.1,0.2,0,0.3-0.3,0.4l0.1,0.2h-0.4l-0.1-0.2c-0.3,0-0.5-0.1-0.6-0.1l0.1-0.2c0.1,0,0.3,0.1,0.5,0.1
			c0.2,0,0.3-0.1,0.3-0.2C65.5,43.4,65.3,43.3,65,43.3z M46.9,43.3c-0.2-0.1-0.4-0.2-0.3-0.4c0.1-0.2,0.3-0.3,0.6-0.3l0.1-0.2h0.3
			l-0.1,0.2c0.2,0,0.4,0.1,0.4,0.1l-0.3,0.2c-0.1,0-0.2-0.1-0.4-0.1c-0.2,0-0.3,0-0.3,0.1c0,0.1,0.1,0.1,0.3,0.2
			c0.2,0.1,0.5,0.2,0.4,0.4c-0.1,0.2-0.3,0.3-0.7,0.4l-0.1,0.2h-0.4l0.1-0.2c-0.3,0-0.4-0.1-0.5-0.1l0.3-0.2c0,0,0.2,0.1,0.4,0.1
			c0.2,0,0.4-0.1,0.4-0.2C47.3,43.4,47.1,43.3,46.9,43.3z M58.9,49.8L58.9,49.8L58.9,49.8c-0.7,0.5-1.7,0.8-2.8,0.8
			c-1.1,0-2.1-0.3-2.8-0.7l0,0l0,0c0,0,0-0.2,0-0.5c0-0.1,0-0.2,0.1-0.3c0-0.1,0.1-0.2,0.2-0.3c0.2-0.2,0.4-0.3,0.6-0.3
			c0.2-0.1,0.5-0.1,0.8-0.2c0.2,0,0.3-0.1,0.3-0.1c0.1,0,0.1-0.1,0.1-0.1c0,0,0,0,0-0.1c0,0,0,0,0,0c-0.1,0-0.1-0.1-0.2-0.1
			c-0.2-0.2-0.4-0.4-0.5-0.7c-0.1,0-0.1,0-0.2-0.1c0,0-0.1-0.1-0.1-0.1c0-0.1-0.1-0.2-0.1-0.3c0-0.1,0.1-0.2,0.2-0.2
			c0,0,0-0.1,0-0.1c0-0.6,0.7-1,1.4-1c0.8,0,1.4,0.4,1.4,1c0,0,0,0.1,0,0.1c0.1,0,0.2,0.1,0.2,0.2c0,0.1,0,0.1,0,0.2
			c0,0.1-0.1,0.1-0.1,0.2c0,0-0.1,0.1-0.2,0.1c0,0.3-0.2,0.5-0.5,0.7c0,0-0.1,0.1-0.2,0.1c0,0,0,0,0,0c0,0,0,0,0,0.1c0,0,0,0,0,0
			c0.1,0,0.2,0.1,0.4,0.1c0.3,0.1,0.6,0.1,0.8,0.2c0.2,0.1,0.4,0.2,0.6,0.3c0.1,0.1,0.2,0.2,0.2,0.3c0,0.1,0.1,0.2,0.1,0.3
			C59,49.6,59,49.8,58.9,49.8z M70,50.2c-0.7,0-1,0.5-0.7,1.1h-9.6c1.2-1.1,1.8-2.6,1.4-4.1c-0.5-2.2-2.7-3.7-5.1-3.7
			c-2.4,0-4.6,1.5-5.1,3.7c-0.3,1.5,0.2,3.1,1.4,4.1h-9.6c0.3-0.6,0-1.1-0.7-1.1l3-5.8c0.3,0.2,0.7,0.3,1.3,0.3
			c1.3,0,2.6-0.7,2.9-1.5c0.1-0.3,0-0.5-0.1-0.7H63c-0.1,0.2-0.2,0.4-0.1,0.7c0.3,0.8,1.6,1.5,2.9,1.5c0.5,0,0.9-0.1,1.2-0.2
			L70,50.2z M65.9,46.5c-0.1-0.1-0.2-0.1-0.1-0.2c0,0,0,0-0.1-0.1c-0.1,0-0.2-0.1-0.2-0.2c0-0.1,0-0.1-0.1-0.1
			c-0.1,0-0.2-0.1-0.3-0.2c0-0.1,0-0.1-0.1-0.1c-0.1,0-0.2-0.1-0.3-0.1c0,0,0,0-0.1,0c-0.1,0-0.2,0-0.3-0.1c-0.1,0-0.1,0-0.1,0
			c-0.1,0-0.2,0-0.3,0c-0.1,0-0.1,0-0.1,0c-0.1,0-0.2,0.1-0.3,0c-0.1,0-0.1,0-0.1,0c0,0.1-0.1,0.1-0.2,0.1c-0.1,0-0.1,0-0.1,0
			c0,0.1-0.1,0.1-0.2,0.1c-0.1,0-0.1,0-0.1,0.1c0,0.1-0.1,0.1-0.1,0.2c-0.1,0-0.1,0,0,0.1c0,0.1,0,0.2-0.1,0.2c-0.1,0-0.1,0,0,0.1
			c0.1,0.1,0.1,0.2,0,0.2c0,0,0,0,0,0.1c0.1,0.1,0.1,0.2,0.1,0.2c0,0,0,0,0,0.1c0.1,0,0.2,0.1,0.2,0.2c0,0.1,0,0.1,0.1,0.1
			c0.1,0,0.2,0.1,0.2,0.2c0,0.1,0,0.1,0.1,0.1c0.1,0,0.2,0.1,0.3,0.2c0,0.1,0,0.1,0.1,0.1c0.1,0,0.2,0,0.3,0.1
			c0.1,0.1,0.1,0.1,0.1,0c0.1,0,0.2,0,0.3,0.1c0.1,0,0.1,0,0.1,0c0.1,0,0.2,0,0.3,0c0.1,0,0.1,0,0.1,0c0-0.1,0.2-0.1,0.3-0.1
			c0.1,0,0.1,0,0.1,0c0-0.1,0.1-0.1,0.2-0.1c0.1,0,0.1,0,0.1-0.1c0-0.1,0.1-0.2,0.2-0.2c0.1,0,0.1,0,0-0.1c0-0.1,0-0.2,0.1-0.2
			c0.1,0,0.1,0,0-0.1c-0.1-0.1-0.1-0.2,0-0.2c0,0,0,0,0-0.1C65.9,46.8,65.9,46.7,65.9,46.5C65.9,46.6,65.9,46.6,65.9,46.5z"/>
		<path class="st0" d="M72.1,53c-0.2,0.2-0.5,0.4-0.9,0.4H41c-0.4,0-0.7-0.1-0.9-0.4c-0.2,0.7,0.3,1.3,1,1.3h30
			C71.9,54.3,72.3,53.7,72.1,53z"/>
		<path class="st0" d="M71.9,54.7C71.7,54.9,71.4,55,71,55H41.2c-0.4,0-0.7-0.1-0.9-0.4c-0.2,0.7,0.2,1.2,1,1.2h29.5
			C71.6,55.9,72,55.3,71.9,54.7z"/>
		<path class="st0" d="M71.6,56.2c-0.2,0.2-0.5,0.4-0.9,0.4H41.5c-0.4,0-0.7-0.1-0.9-0.4c-0.2,0.7,0.2,1.2,1,1.2h29
			C71.4,57.4,71.8,56.9,71.6,56.2z"/>
		<path class="st0" d="M71.3,57.8c-0.2,0.2-0.5,0.4-0.8,0.4H41.7c-0.4,0-0.7-0.1-0.8-0.4c-0.2,0.6,0.2,1.2,1,1.2h28.5
			C71.1,59,71.5,58.4,71.3,57.8z"/>
		<path class="st0" d="M71.1,59.3c-0.2,0.2-0.5,0.3-0.8,0.3H41.9c-0.4,0-0.7-0.1-0.8-0.3c-0.2,0.6,0.2,1.1,1,1.1h28.1
			C70.9,60.4,71.3,59.9,71.1,59.3z"/>
	</g>
	<path class="st1" d="M32.4,21.5c6.6,2.8,13.1,5.6,19.7,8.4v3h-1.2v2.3H14v-2.3h-1.2v-3C19.3,27.1,25.9,24.3,32.4,21.5L32.4,21.5z"
		/>
	<path class="st1" d="M16.8,37.1h7.1c0.2,0,0.4,0.2,0.4,0.4v1.3c0,0.2-0.2,0.4-0.4,0.4h-0.8l0.2,15.5h0.8c0.2,0,0.4,0.2,0.4,0.4v2
		c0,0.2-0.2,0.4-0.4,0.4h-7.6c-0.2,0-0.4-0.2-0.4-0.4v-2c0-0.2,0.2-0.4,0.4-0.4h0.8l0.2-15.5h-0.8c-0.2,0-0.4-0.2-0.4-0.4v-1.3
		C16.4,37.2,16.6,37.1,16.8,37.1L16.8,37.1z"/>
	<path class="st1" d="M28.9,37.1H36c0.2,0,0.4,0.2,0.4,0.4v1.3c0,0.2-0.2,0.4-0.4,0.4h-0.8l0.2,15.5h0.8c0.2,0,0.4,0.2,0.4,0.4v2
		c0,0.2-0.2,0.4-0.4,0.4h-7.6c-0.2,0-0.4-0.2-0.4-0.4v-2c0-0.2,0.2-0.4,0.4-0.4h0.8l0.2-15.5h-0.8c-0.2,0-0.4-0.2-0.4-0.4v-1.3
		C28.5,37.2,28.6,37.1,28.9,37.1L28.9,37.1z"/>
	<path class="st1" d="M41,39.1h0.8l-0.1,3.7c1.6-1.4,3.5-2.5,5.6-3l0-0.8h0.8c0.2,0,0.4-0.2,0.4-0.4v-1.3c0-0.2-0.2-0.4-0.4-0.4H41
		c-0.2,0-0.4,0.2-0.4,0.4v1.3C40.6,38.9,40.7,39.1,41,39.1z"/>
	<path class="st1" d="M39,58.9H14.2v2.3h-1.4v2.3h30.5C41.6,62.3,40.1,60.7,39,58.9z"/>
</g>
</svg>
